<?xml version="1.0" encoding="UTF-8"?>
<!-- Created with Inkscape (http://www.inkscape.org/) -->
<svg width="256" height="256" version="1.1" viewBox="0 0 67.733 67.733" xmlns="http://www.w3.org/2000/svg" xmlns:xlink="http://www.w3.org/1999/xlink">
 <text x="15.957203" y="33.718334" fill="#000" font-family="sans-serif" font-size="12.347px" stroke-width=".26458" style="line-height:1.25" xml:space="preserve"><tspan x="15.957203" y="33.718334" fill="#000" font-family="'Fira Sans'" font-size="12.347px" stroke-width=".26458">GELOS</tspan></text>
 <text x="33.74543" y="40.44445" fill="#000" font-family="'Fira Sans'" font-size="4.2333px" stroke-width=".26458" text-anchor="middle" style="line-height:1.05" xml:space="preserve"><tspan x="33.74543" y="40.44445" text-align="center">Grupo de Extensão em</tspan><tspan x="33.74543" y="44.971581" text-align="center">Livre &amp; Open Source</tspan></text>
 <path d="m57.175 27.998-0.35405-0.20442 0.3283-0.13679c0.07643-0.03186 0.1126-0.11964 0.08074-0.19609-0.03188-0.07647-0.11964-0.11252-0.19609-0.08074l-0.53978 0.2249-0.95433-0.55098 0.56913-0.20866c0.05901-0.02164 0.09828-0.0778 0.09832-0.14067 4.3e-5 -0.06288-0.03912-0.1191-0.0981-0.14083l-0.57057-0.21018 0.94405-0.54506 0.53787 0.2081c0.01779 0.0069 0.03609 0.0101 0.05405 0.0101 0.06014 0 0.1169-0.03644 0.13989-0.09589 0.02987-0.07723-0.0085-0.16406-0.08575-0.19395l-0.31259-0.12094 0.35891-0.20722c0.07171-0.0414 0.09629-0.13311 0.05489-0.20482-0.04138-0.07173-0.13313-0.09627-0.20482-0.05489l-0.35405 0.20445 0.04569-0.35271c0.01065-0.08212-0.04731-0.15732-0.12943-0.16796-0.08221-0.01083-0.15734 0.04731-0.16796 0.12943l-0.0751 0.57993-0.95433 0.551 0.10384-0.59718c0.01078-0.06195-0.01824-0.12402-0.07265-0.15548-0.05442-0.03149-0.12601-0.02569-0.17434 0.01458l-0.47067 0.38908v-1.0435l0.46801-0.35503c0.0658-0.0503 0.08005-0.14439 0.02978-0.2102-0.0503-0.06581-0.14687-0.0784-0.21268-0.02812l-0.2851 0.21592v-0.4288c0-0.08283-0.06712-0.14994-0.14994-0.14994-0.08283 0-0.14995 0.06712-0.14995 0.14994v0.43448l-0.25771-0.21024c-0.06448-0.052-0.15724-0.04177-0.20916 0.02273-0.05195 0.0645-0.04428 0.15888 0.02025 0.21082l0.44666 0.36177v1.0287l-0.46192-0.3885c-0.04828-0.04033-0.11488-0.04622-0.16932-0.01482-0.05448 0.03138-0.08273 0.09342-0.07205 0.15536l0.10366 0.59922-0.90343-0.52173-0.07508-0.57993c-0.01062-0.08212-0.08578-0.14015-0.16792-0.12943-0.0821 0.01064-0.14005 0.08585-0.12939 0.16796l0.04571 0.35267-0.37132-0.21438c-0.07175-0.0414-0.16344-0.01685-0.20482 0.05489-0.0414 0.07171-0.01684 0.16342 0.05489 0.20482l0.37628 0.21724-0.31262 0.12096c-0.07723 0.02989-0.11562 0.11672-0.08575 0.19395 0.02298 0.05946 0.07975 0.09589 0.13989 0.09589 0.01799 0 0.03628-0.0033 0.05405-0.0101l0.53788-0.2081 0.89083 0.51431-0.56909 0.20866c-0.05902 0.02165-0.09829 0.07782-0.09832 0.14067-4.3e-5 0.06288 0.03912 0.1191 0.0981 0.14083l0.57057 0.21018-0.90365 0.52173-0.5398-0.22488c-0.07637-0.03188-0.16422 0.0043-0.19607 0.08075-0.03188 0.07644 0.0043 0.16422 0.08076 0.19607l0.32828 0.13677-0.37137 0.21442c-0.07171 0.0414-0.09628 0.13311-0.05489 0.20483 0.02777 0.0481 0.07817 0.075 0.12999 0.075 0.02544 0 0.05124-0.0066 0.07482-0.02011l0.37626-0.21724-0.05156 0.3312c-0.01275 0.08183 0.04329 0.15848 0.12511 0.17122 0.0078 0.0013 0.01555 0.0018 0.02324 0.0018 0.07265 0 0.13645-0.05288 0.14798-0.12691l0.08868-0.56985 0.89088-0.51433-0.10384 0.59718c-0.01078 0.06194 0.01823 0.12402 0.07265 0.15548 0.05437 0.03145 0.11932 0.02564 0.16768-0.01458l0.46394-0.38908v1.0901l-0.44582 0.36177c-0.06452 0.05194-0.07301 0.14633-0.02104 0.21082 0.05192 0.06448 0.14383 0.07465 0.20833 0.02273l0.25856-0.21026v0.41449c0 0.08283 0.06712 0.14994 0.14994 0.14994 0.08283 0 0.14995-0.06712 0.14995-0.14994v-0.40878l0.28592 0.21592c0.02717 0.02075 0.06084 0.03081 0.09259 0.03079 0.04515 0 0.09059-0.02029 0.1201-0.0589 0.05028-0.06583 0.03477-0.1599-0.03102-0.2102l-0.46757-0.35504v-1.102l0.46861 0.38856c0.02762 0.02305 0.06344 0.03485 0.09781 0.03485 0.0257 0 0.05237-0.0066 0.07569-0.02003 0.05447-0.03138 0.084-0.09342 0.07329-0.15538l-0.10306-0.5992 0.94416 0.54506 0.08874 0.56985c0.01155 0.07401 0.07537 0.12691 0.14803 0.12691 0.0076 0 0.01544-5.73e-4 0.02324-0.0018 0.08183-0.01277 0.13785-0.08941 0.12511-0.17122l-0.05156-0.3312 0.35893 0.20722c0.02363 0.01364 0.0494 0.02011 0.07482 0.02011 0.05182 0 0.10223-0.0269 0.12999-0.075 0.04142-0.07173 0.01686-0.16344-0.05487-0.20484zm-1.5524-1.2939-0.42118 0.15442-0.26874-0.15518 0.26792-0.15468zm-0.49762-0.85754-0.07852 0.44192-0.27044 0.15516v-0.30937zm-0.9898-7.99e-4 0.34098 0.28754v0.31033l-0.26629-0.1547zm-0.49222 0.85683 0.42114-0.15442 0.26878 0.15518-0.26792 0.15468zm0.49094 0.85754 0.07519-0.44192 0.26706-0.15514v0.30939zm0.9898 7.66e-4 -0.34765-0.28753v-0.31033l0.26964 0.1547z" fill="#000" stroke-width=".019993"/>
</svg>
