<?xml version="1.0" encoding="UTF-8"?>
<!-- Created with Inkscape (http://www.inkscape.org/) -->
<svg width="256" height="256" version="1.1" viewBox="0 0 67.733 67.733" xmlns="http://www.w3.org/2000/svg" xmlns:xlink="http://www.w3.org/1999/xlink">
 <g transform="matrix(1.5835 0 0 1.5835 -46.927 -38.559)" fill="#fff">
  <text x="40.253086" y="57.517155" font-family="sans-serif" font-size="7.4232px" stroke-width=".15907" style="line-height:1.25" xml:space="preserve"><tspan x="40.253086" y="57.517155" fill="#fff" font-family="'Fira Sans'" font-size="7.4232px" stroke-width=".15907">GELOS</tspan></text>
  <path d="m58.159 45.892-1.001-0.57795 0.92819-0.38674c0.21609-0.09008 0.31835-0.33825 0.22827-0.5544-0.09013-0.2162-0.33825-0.31812-0.5544-0.22827l-1.5261 0.63585-2.6981-1.5578 1.6091-0.58994c0.16684-0.06118 0.27786-0.21996 0.27798-0.39771 1.22e-4 -0.17778-0.1106-0.33673-0.27735-0.39816l-1.6131-0.59423 2.6691-1.541 1.5207 0.58835c0.0503 0.01951 0.10204 0.02856 0.15281 0.02856 0.17003 0 0.33051-0.10303 0.3955-0.27111 0.08445-0.21835-0.02403-0.46384-0.24244-0.54834l-0.88377-0.34193 1.0147-0.58586c0.20274-0.11705 0.27224-0.37634 0.15519-0.57908-0.11699-0.2028-0.37639-0.27218-0.57908-0.15519l-1.001 0.57803 0.12918-0.9972c0.03011-0.23217-0.13376-0.44478-0.36593-0.47486-0.23243-0.03062-0.44484 0.13376-0.47486 0.36593l-0.21233 1.6396-2.6981 1.5578 0.29358-1.6884c0.03048-0.17515-0.05157-0.35064-0.2054-0.43958-0.15386-0.08903-0.35626-0.07263-0.4929 0.04122l-1.3307 1.1v-2.9502l1.3232-1.0038c0.18603-0.14221 0.22632-0.40823 0.0842-0.59429-0.14221-0.18606-0.41524-0.22166-0.6013-0.0795l-0.80605 0.61046v-1.2123c0-0.23418-0.18976-0.42392-0.42392-0.42392-0.23418 0-0.42395 0.18976-0.42395 0.42392v1.2284l-0.72861-0.5944c-0.1823-0.14702-0.44456-0.11809-0.59135 0.06426-0.14688 0.18236-0.12519 0.44919 0.05725 0.59604l1.2628 1.0228v2.9084l-1.306-1.0984c-0.1365-0.11402-0.3248-0.13068-0.47871-0.0419-0.15403 0.08872-0.2339 0.26412-0.2037 0.43924l0.29307 1.6941-2.5542-1.4751-0.21227-1.6396c-0.03003-0.23217-0.24252-0.39624-0.47475-0.36593-0.23212 0.03008-0.39596 0.24272-0.36582 0.47486l0.12923 0.99709-1.0498-0.60611c-0.20286-0.11705-0.46209-0.04764-0.57908 0.15519-0.11705 0.20274-0.04761 0.46203 0.15519 0.57908l1.0638 0.61419-0.88386 0.34198c-0.21835 0.08451-0.32689 0.33-0.24244 0.54834 0.06497 0.16811 0.22547 0.27111 0.3955 0.27111 0.05086 0 0.10257-0.0093 0.15281-0.02856l1.5207-0.58835 2.5186 1.4541-1.609 0.58994c-0.16686 0.06121-0.27789 0.22002-0.27798 0.39771-1.22e-4 0.17778 0.1106 0.33673 0.27735 0.39816l1.6131 0.59423-2.5548 1.4751-1.5262-0.63579c-0.21592-0.09013-0.46429 0.01216-0.55434 0.2283-0.09013 0.21612 0.01216 0.46429 0.22833 0.55434l0.92813 0.38668-1.05 0.60622c-0.20274 0.11705-0.27221 0.37634-0.15519 0.57911 0.07851 0.13599 0.22101 0.21204 0.36751 0.21204 0.07193 0 0.14487-0.01866 0.21154-0.05686l1.0638-0.61419-0.14577 0.93639c-0.03605 0.23135 0.12239 0.44806 0.35372 0.48408 0.02205 0.0037 0.04396 0.0051 0.0657 0.0051 0.2054 0 0.38578-0.1495 0.41838-0.35881l0.25072-1.6111 2.5187-1.4541-0.29358 1.6884c-0.03048 0.17512 0.05154 0.35064 0.2054 0.43958 0.15372 0.08892 0.33735 0.07249 0.47407-0.04122l1.3117-1.1v3.082l-1.2604 1.0228c-0.18241 0.14685-0.20642 0.41371-0.05949 0.59604 0.14679 0.1823 0.40664 0.21105 0.589 0.06426l0.73101-0.59446v1.1719c0 0.23418 0.18977 0.42392 0.42392 0.42392 0.23418 0 0.42395-0.18976 0.42395-0.42392v-1.1557l0.80837 0.61046c0.07682 0.05867 0.17201 0.08711 0.26178 0.08705 0.12765 0 0.25612-0.05737 0.33955-0.16652 0.14215-0.18612 0.0983-0.45208-0.0877-0.59429l-1.3219-1.0038v-3.1156l1.3249 1.0986c0.07809 0.06517 0.17936 0.09853 0.27653 0.09853 0.07266 0 0.14806-0.01866 0.21399-0.05663 0.154-0.08872 0.23749-0.26412 0.20721-0.4393l-0.29138-1.6941 2.6694 1.541 0.25089 1.6111c0.03265 0.20924 0.21309 0.35881 0.41852 0.35881 0.02149 0 0.04365-0.0016 0.06571-0.0051 0.23135-0.0361 0.38974-0.25278 0.35372-0.48408l-0.14577-0.93639 1.0148 0.58586c0.06681 0.03856 0.13967 0.05686 0.21154 0.05686 0.14651 0 0.28903-0.07605 0.36751-0.21204 0.1171-0.2028 0.04767-0.46209-0.15513-0.57913zm-4.389-3.6582-1.1908 0.43658-0.7598-0.43873 0.75748-0.43732zm-1.4069-2.4245-0.222 1.2494-0.7646 0.43868v-0.87467zm-2.7984-0.0023 0.96404 0.81295v0.87738l-0.75287-0.43738zm-1.3916 2.4225 1.1907-0.43658 0.75991 0.43873-0.75748 0.43732zm1.388 2.4245 0.21258-1.2494 0.75505-0.43862v0.87472zm2.7984 0.0022-0.9829-0.81292v-0.87738l0.76234 0.43738z" stroke-width=".056525"/>
 </g>
</svg>
